<?xml version="1.0" encoding="UTF-8"?>
<!-- Generator: Adobe Illustrator 25.0.1, SVG Export Plug-In . SVG Version: 6.00 Build 0) -->
<svg xmlns="http://www.w3.org/2000/svg" xmlns:xlink="http://www.w3.org/1999/xlink" version="1.1" id="Layer_1" x="0px" y="0px" viewBox="0 0 286.8 55.4" style="enable-background:new 0 0 286.8 55.4;" xml:space="preserve"> <style type="text/css"> .st0{fill:#2A3B47;} .st1{fill:#FED304;} .st2{fill:#FEC417;} </style> <g> <g> <path class="st0" d="M59,15.8V13h1.5v2.8H59z M59,35V19.3h1.5V35H59z"/> <path class="st0" d="M88.3,35h-1.5v-8.7c0-2-0.3-3.4-0.9-4.4c-0.6-0.9-1.6-1.4-2.8-1.4c-1.3,0-2.4,0.5-3.4,1.4 c-1,0.9-1.7,2.1-2.1,3.5V35H76v-8.7c0-2-0.3-3.5-0.9-4.4c-0.6-0.9-1.5-1.4-2.8-1.4c-1.3,0-2.4,0.4-3.4,1.3c-1,0.9-1.7,2.1-2.1,3.5 V35h-1.5V19.4h1.4v3.8c0.7-1.3,1.5-2.3,2.6-3c1-0.7,2.2-1,3.4-1c1.3,0,2.4,0.4,3.2,1.2c0.8,0.8,1.3,1.8,1.5,3.1 c0.7-1.4,1.6-2.5,2.7-3.2c1-0.7,2.2-1.1,3.5-1.1c0.9,0,1.6,0.2,2.2,0.5c0.6,0.3,1.1,0.8,1.5,1.4c0.4,0.6,0.7,1.3,0.8,2.2 c0.2,0.9,0.3,1.8,0.3,2.9V35z"/> <path class="st0" d="M100.5,35.3c-1.3,0-2.5-0.4-3.6-1.1c-1.1-0.7-1.9-1.6-2.5-2.6v9.8h-1.5V19.4h1.4v3.2c0.6-1,1.5-1.8,2.6-2.4 c1.1-0.6,2.2-0.9,3.4-0.9c1.1,0,2.1,0.2,3,0.7c0.9,0.5,1.7,1.1,2.4,1.8c0.7,0.8,1.2,1.6,1.6,2.6c0.4,1,0.6,2,0.6,3 c0,1.4-0.3,2.8-0.9,4c-0.6,1.2-1.4,2.2-2.5,3C103.1,34.9,101.9,35.3,100.5,35.3z M100.1,34c0.9,0,1.8-0.2,2.5-0.6 c0.7-0.4,1.4-0.9,1.9-1.5c0.5-0.6,0.9-1.4,1.2-2.2c0.3-0.8,0.4-1.6,0.4-2.5c0-0.9-0.2-1.8-0.5-2.6c-0.3-0.8-0.8-1.5-1.3-2.1 c-0.6-0.6-1.2-1.1-2-1.5c-0.8-0.4-1.6-0.6-2.5-0.6c-0.5,0-1.1,0.1-1.7,0.3c-0.6,0.2-1.2,0.5-1.7,0.9c-0.6,0.4-1,0.9-1.4,1.4 c-0.4,0.5-0.6,1-0.7,1.6v5.1c0.4,0.8,0.8,1.5,1.4,2.1c0.6,0.6,1.2,1.1,2,1.5C98.5,33.8,99.3,34,100.1,34z"/> <path class="st0" d="M118.7,20.7c-1.4,0-2.6,0.5-3.7,1.3c-1.1,0.8-1.8,1.9-2.2,3.3V35h-1.5V19.4h1.4v3.8c0.5-1.1,1.3-2,2.2-2.7 c0.9-0.7,1.9-1.1,2.9-1.2c0.2,0,0.4,0,0.5,0c0.2,0,0.3,0,0.4,0V20.7z"/> <path class="st0" d="M127.6,35.3c-1.1,0-2.1-0.2-3.1-0.6c-0.9-0.4-1.8-1-2.5-1.8c-0.7-0.8-1.2-1.6-1.6-2.6c-0.4-1-0.6-2-0.6-3.1 c0-1.5,0.3-2.8,1-4c0.7-1.2,1.6-2.2,2.7-2.9c1.2-0.7,2.5-1.1,3.9-1.1c1.5,0,2.8,0.4,3.9,1.1c1.1,0.7,2.1,1.7,2.7,2.9 c0.7,1.2,1,2.5,1,4c0,0.1,0,0.2,0,0.4c0,0.1,0,0.2,0,0.3h-13.7c0.1,1.2,0.4,2.2,1,3.2c0.6,1,1.3,1.7,2.2,2.3 c0.9,0.5,1.9,0.8,3,0.8c1.1,0,2.1-0.3,3.1-0.8c1-0.6,1.6-1.3,2-2.2l1.3,0.4c-0.3,0.7-0.8,1.4-1.4,2c-0.7,0.6-1.4,1-2.3,1.4 C129.5,35.1,128.5,35.3,127.6,35.3z M121.3,26.6h12.4c-0.1-1.2-0.4-2.3-1-3.2c-0.6-0.9-1.3-1.7-2.2-2.2c-0.9-0.5-1.9-0.8-3-0.8 c-1.1,0-2.1,0.3-3,0.8c-0.9,0.5-1.6,1.3-2.2,2.2C121.7,24.3,121.4,25.4,121.3,26.6z"/> <path class="st0" d="M151.3,35h-1.5v-8.7c0-2-0.3-3.5-0.9-4.4c-0.6-0.9-1.5-1.4-2.7-1.4c-0.9,0-1.8,0.2-2.6,0.6 c-0.9,0.4-1.6,1-2.2,1.7c-0.6,0.7-1.1,1.6-1.4,2.5V35h-1.5V19.4h1.4v3.8c0.4-0.8,1-1.5,1.7-2.1c0.7-0.6,1.5-1.1,2.4-1.4 c0.9-0.3,1.8-0.5,2.7-0.5c0.9,0,1.6,0.2,2.2,0.5c0.6,0.3,1.1,0.8,1.4,1.3c0.4,0.6,0.6,1.3,0.8,2.2c0.2,0.9,0.2,1.8,0.2,2.9V35z"/> <path class="st0" d="M156,13h1.5v19c0,0.7,0.2,1.2,0.5,1.5c0.3,0.3,0.7,0.4,1.2,0.4c0.3,0,0.7,0,1-0.1c0.3-0.1,0.6-0.1,0.9-0.2 l0.3,1.2c-0.3,0.1-0.8,0.2-1.3,0.3c-0.5,0.1-0.9,0.2-1.3,0.2c-0.8,0-1.5-0.3-2-0.8c-0.5-0.5-0.8-1.2-0.8-2.1V13z"/> <path class="st0" d="M163.6,15.8V13h1.5v2.8H163.6z M163.6,35V19.3h1.5V35H163.6z"/> <path class="st0" d="M182.7,35h-1.5v-8.7c0-2-0.3-3.5-0.9-4.4c-0.6-0.9-1.5-1.4-2.7-1.4c-0.9,0-1.8,0.2-2.6,0.6 c-0.9,0.4-1.6,1-2.2,1.7c-0.6,0.7-1.1,1.6-1.4,2.5V35h-1.5V19.4h1.4v3.8c0.4-0.8,1-1.5,1.7-2.1c0.7-0.6,1.5-1.1,2.4-1.4 c0.9-0.3,1.8-0.5,2.7-0.5c0.9,0,1.6,0.2,2.2,0.5c0.6,0.3,1.1,0.8,1.4,1.3c0.4,0.6,0.6,1.3,0.8,2.2c0.2,0.9,0.2,1.8,0.2,2.9V35z"/> <path class="st0" d="M193.9,35.3c-1.1,0-2.1-0.2-3.1-0.6c-0.9-0.4-1.8-1-2.5-1.8c-0.7-0.8-1.2-1.6-1.6-2.6c-0.4-1-0.6-2-0.6-3.1 c0-1.5,0.3-2.8,1-4c0.7-1.2,1.6-2.2,2.7-2.9c1.2-0.7,2.5-1.1,3.9-1.1c1.5,0,2.8,0.4,3.9,1.1c1.1,0.7,2.1,1.7,2.7,2.9 c0.7,1.2,1,2.5,1,4c0,0.1,0,0.2,0,0.4c0,0.1,0,0.2,0,0.3h-13.7c0.1,1.2,0.4,2.2,1,3.2c0.6,1,1.3,1.7,2.2,2.3 c0.9,0.5,1.9,0.8,3,0.8s2.1-0.3,3.1-0.8c1-0.6,1.6-1.3,2-2.2l1.3,0.4c-0.3,0.7-0.8,1.4-1.4,2c-0.7,0.6-1.4,1-2.3,1.4 C195.8,35.1,194.9,35.3,193.9,35.3z M187.7,26.6H200c-0.1-1.2-0.4-2.3-1-3.2c-0.6-0.9-1.3-1.7-2.2-2.2c-0.9-0.5-1.9-0.8-3-0.8 c-1.1,0-2.1,0.3-3,0.8c-0.9,0.5-1.6,1.3-2.2,2.2C188.1,24.3,187.7,25.4,187.7,26.6z"/> <path class="st0" d="M203.5,30.5c0-0.9,0.3-1.8,0.8-2.4c0.6-0.7,1.3-1.2,2.3-1.6c1-0.4,2.1-0.6,3.4-0.6c0.8,0,1.6,0.1,2.5,0.2 c0.9,0.1,1.6,0.3,2.3,0.6v-1.5c0-1.4-0.4-2.6-1.2-3.4c-0.8-0.9-2-1.3-3.4-1.3c-0.8,0-1.6,0.2-2.4,0.5c-0.8,0.3-1.7,0.8-2.6,1.4 l-0.6-1.1c1-0.7,2-1.2,3-1.6c1-0.4,1.9-0.5,2.8-0.5c1.9,0,3.3,0.6,4.4,1.7c1.1,1.1,1.6,2.6,1.6,4.5V33c0,0.2,0.1,0.4,0.2,0.5 c0.1,0.1,0.3,0.2,0.5,0.2V35c-0.2,0-0.3,0-0.5,0c-0.1,0-0.2,0-0.3,0c-0.4-0.1-0.7-0.2-0.9-0.5c-0.2-0.3-0.3-0.6-0.3-0.9v-1.2 c-0.7,0.9-1.7,1.6-2.8,2.1c-1.1,0.5-2.3,0.8-3.6,0.8c-1,0-1.9-0.2-2.7-0.6c-0.8-0.4-1.4-1-1.9-1.7 C203.7,32.2,203.5,31.4,203.5,30.5z M214.3,31.8c0.2-0.3,0.4-0.5,0.5-0.7c0.1-0.2,0.2-0.5,0.2-0.7v-2.6c-0.7-0.3-1.5-0.5-2.3-0.6 c-0.8-0.1-1.6-0.2-2.4-0.2c-1.6,0-2.8,0.3-3.8,0.9c-1,0.6-1.5,1.5-1.5,2.5c0,0.7,0.2,1.3,0.5,1.8c0.3,0.6,0.8,1,1.4,1.4 c0.6,0.3,1.3,0.5,2.1,0.5c1.1,0,2.2-0.2,3.1-0.6C213.1,33,213.8,32.5,214.3,31.8z"/> <path class="st0" d="M220.6,35v-2.6h1.3V35H220.6z"/> <path class="st0" d="M232.4,35.3c-1.1,0-2.1-0.2-3-0.6c-0.9-0.4-1.8-1-2.5-1.8c-0.7-0.8-1.2-1.6-1.6-2.6c-0.4-1-0.6-2-0.6-3.2 c0-1.5,0.3-2.9,1-4.1s1.6-2.2,2.7-2.9c1.2-0.7,2.5-1.1,4-1.1c1.4,0,2.7,0.3,3.8,1c1.1,0.7,1.9,1.5,2.4,2.7l-1.5,0.5 c-0.5-0.9-1.1-1.5-2-2c-0.9-0.5-1.8-0.7-2.8-0.7c-1.1,0-2.2,0.3-3.1,0.9s-1.7,1.4-2.2,2.4c-0.6,1-0.8,2.1-0.8,3.4 c0,1.2,0.3,2.4,0.8,3.4c0.6,1,1.3,1.9,2.2,2.5c0.9,0.6,2,0.9,3.1,0.9c0.7,0,1.4-0.1,2.1-0.4c0.7-0.3,1.3-0.6,1.8-1.1 c0.5-0.4,0.8-0.9,1-1.4l1.5,0.4c-0.3,0.7-0.7,1.4-1.4,2c-0.6,0.6-1.4,1-2.2,1.4C234.3,35.1,233.3,35.3,232.4,35.3z"/> <path class="st0" d="M248.5,35.3c-1.1,0-2.1-0.2-3.1-0.6c-0.9-0.4-1.7-1-2.4-1.8s-1.2-1.6-1.6-2.6c-0.4-1-0.6-2-0.6-3.1 c0-1.1,0.2-2.2,0.6-3.1c0.4-1,0.9-1.8,1.6-2.6c0.7-0.8,1.5-1.3,2.4-1.8c0.9-0.4,1.9-0.6,3-0.6c1.1,0,2.1,0.2,3,0.6 c0.9,0.4,1.7,1,2.4,1.8c0.7,0.8,1.2,1.6,1.6,2.6c0.4,1,0.6,2,0.6,3.1c0,1.1-0.2,2.1-0.6,3.1c-0.4,1-0.9,1.8-1.6,2.6 s-1.5,1.3-2.4,1.8C250.6,35.1,249.6,35.3,248.5,35.3z M242.4,27.3c0,1.2,0.3,2.4,0.8,3.4c0.6,1,1.3,1.8,2.2,2.4 c0.9,0.6,1.9,0.9,3.1,0.9s2.2-0.3,3.1-0.9c0.9-0.6,1.7-1.4,2.2-2.5c0.6-1,0.8-2.2,0.8-3.4c0-1.2-0.3-2.3-0.8-3.4 c-0.6-1-1.3-1.8-2.2-2.4c-0.9-0.6-1.9-0.9-3.1-0.9c-1.1,0-2.2,0.3-3.1,0.9c-0.9,0.6-1.7,1.4-2.2,2.5 C242.7,24.9,242.4,26,242.4,27.3z"/> <path class="st0" d="M282.8,35h-1.5v-8.7c0-2-0.3-3.4-0.9-4.4c-0.6-0.9-1.6-1.4-2.8-1.4c-1.3,0-2.4,0.5-3.4,1.4 c-1,0.9-1.7,2.1-2.1,3.5V35h-1.5v-8.7c0-2-0.3-3.5-0.9-4.4c-0.6-0.9-1.5-1.4-2.8-1.4c-1.3,0-2.4,0.4-3.4,1.3 c-1,0.9-1.7,2.1-2.1,3.5V35h-1.5V19.4h1.4v3.8c0.7-1.3,1.5-2.3,2.6-3c1-0.7,2.2-1,3.4-1c1.3,0,2.4,0.4,3.2,1.2 c0.8,0.8,1.3,1.8,1.5,3.1c0.7-1.4,1.6-2.5,2.7-3.2c1-0.7,2.2-1.1,3.5-1.1c0.9,0,1.6,0.2,2.2,0.5c0.6,0.3,1.1,0.8,1.5,1.4 c0.4,0.6,0.7,1.3,0.8,2.2c0.2,0.9,0.3,1.8,0.3,2.9V35z"/> </g> <g> <circle class="st0" cx="26.8" cy="27.2" r="23.1"/> <path class="st1" d="M11,27.2c0-4.4,1.8-8.3,4.6-11.2s6.8-4.6,11.2-4.6h15.8v15.8c0,4.4-1.8,8.3-4.6,11.2 c-2.9,2.9-6.8,4.6-11.2,4.6c-4.4,0-8.3-1.8-11.2-4.6C12.7,35.5,11,31.6,11,27.2z"/> <path class="st2" d="M39.6,36.5c-0.5,0.7-1,1.3-1.6,1.9c-2.9,2.9-6.8,4.6-11.2,4.6C18,43,11,36,11,27.2c0-4.4,1.8-8.3,4.6-11.2 c0.6-0.6,1.2-1.1,1.9-1.6c-1.9,2.6-3,5.8-3,9.2c0,8.7,7.1,15.8,15.8,15.8C33.8,39.4,37,38.3,39.6,36.5z"/> </g> </g> </svg>